<mxfile host="app.diagrams.net" modified="2022-04-14T06:23:33.930Z" agent="5.0 (Macintosh; Intel Mac OS X 10_15_7) AppleWebKit/537.36 (KHTML, like Gecko) Chrome/100.0.4896.75 Safari/537.36" etag="Mje82jIrR4_V6wnEkqIA" version="17.4.2" type="github">
  <diagram id="HHIQlniri4izbtGBOjZO" name="Page-1">
    <mxGraphModel dx="1186" dy="738" grid="1" gridSize="10" guides="1" tooltips="1" connect="1" arrows="1" fold="1" page="1" pageScale="1" pageWidth="827" pageHeight="1169" math="0" shadow="0">
      <root>
        <mxCell id="0" />
        <mxCell id="1" parent="0" />
        <mxCell id="0gkn8be0KtR_NpVbIsUk-5" value="" style="rounded=0;whiteSpace=wrap;html=1;dashed=1;strokeWidth=2;fillColor=#eeeeee;strokeColor=#36393d;" vertex="1" parent="1">
          <mxGeometry x="450" y="150" width="286" height="160" as="geometry" />
        </mxCell>
        <mxCell id="0gkn8be0KtR_NpVbIsUk-4" value="" style="rounded=0;whiteSpace=wrap;html=1;dashed=1;strokeWidth=2;fillColor=#eeeeee;strokeColor=#36393d;" vertex="1" parent="1">
          <mxGeometry x="90" y="150" width="260" height="160" as="geometry" />
        </mxCell>
        <mxCell id="0gkn8be0KtR_NpVbIsUk-1" value="MogDB" style="shape=cylinder3;whiteSpace=wrap;html=1;boundedLbl=1;backgroundOutline=1;size=15;fillColor=#dae8fc;strokeColor=#6c8ebf;" vertex="1" parent="1">
          <mxGeometry x="513" y="170" width="160" height="100" as="geometry" />
        </mxCell>
        <mxCell id="0gkn8be0KtR_NpVbIsUk-6" style="edgeStyle=orthogonalEdgeStyle;rounded=0;orthogonalLoop=1;jettySize=auto;html=1;entryX=0;entryY=0.5;entryDx=0;entryDy=0;entryPerimeter=0;strokeWidth=2;fillColor=#0050ef;strokeColor=#001DBC;" edge="1" parent="1" source="0gkn8be0KtR_NpVbIsUk-2" target="0gkn8be0KtR_NpVbIsUk-1">
          <mxGeometry relative="1" as="geometry" />
        </mxCell>
        <mxCell id="0gkn8be0KtR_NpVbIsUk-2" value="client" style="rounded=1;whiteSpace=wrap;html=1;fillColor=#dae8fc;strokeColor=#6c8ebf;" vertex="1" parent="1">
          <mxGeometry x="160" y="190" width="120" height="60" as="geometry" />
        </mxCell>
      </root>
    </mxGraphModel>
  </diagram>
</mxfile>
